# File created by Blade
# Date/Time:  Tue Sep 30 19:06:56 2014
#---------------------------------------------------------
:version 1.10
:name HOM
:units
  mass 1.0
  length 1.000000
  angle deg
:documentation
     Acclaim Skeleton File
:root
   axis xyz
   order TX TY TZ RX RY RZ
   position 0.000000 0.000000 0.000000
   orientation 0 0 0
:bonedata
   begin
      id 1
      name Spine_dum
      direction 0.000000 1.000000 0.000000
      length 7.508948
      axis 0.0 0.0 0.0 xyz
   end
   begin
      id 2
      name LeftUpLeg_dum
      direction 1.000000 0.000000 0.000000
      length 3.000560
      axis 0.0 0.0 0.0 xyz
   end
   begin
      id 3
      name RightUpLeg_dum
      direction -1.000000 0.000000 0.000000
      length 3.000560
      axis 0.0 0.0 0.0 xyz
   end
   begin
      id 4
      name Spine
      direction 0.000000 1.000000 0.000000
      length 0.000000
      axis 0.0 0.0 0.0 xyz
      dof rx ry rz
   end
   begin
      id 5
      name Spine_dum1
      direction 0.000000 1.000000 0.000000
      length 13.861154
      axis 0.0 0.0 0.0 xyz
   end
   begin
      id 6
      name Spine_dum2
      direction 0.000000 1.000000 0.000000
      length 8.204781
      axis 0.0 0.0 0.0 xyz
   end
   begin
      id 7
      name Spine_dum3
      direction 0.000000 1.000000 0.000000
      length 8.204781
      axis 0.0 0.0 0.0 xyz
   end
   begin
      id 8
      name Head
      direction 0.000000 1.000000 0.000000
      length 4.527550
      axis 0.0 0.0 0.0 xyz
      dof rx ry rz
   end
   begin
      id 9
      name LeftShoulder
      direction 1.000000 0.000000 0.000000
      length 6.635956
      axis 0.0 0.0 -90.0 xyz
      dof rx ry rz
   end
   begin
      id 10
      name LeftArm
      direction 1.000000 0.000000 0.000000
      length 10.274218
      axis 0.0 0.0 -90.0 xyz
      dof rx ry rz
   end
   begin
      id 11
      name LeftForeArm
      direction 1.000000 0.000000 0.000000
      length 8.522147
      axis 0.0 0.0 -90.0 xyz
      dof ry rz rx
   end
   begin
      id 12
      name LeftHand
      direction 0.000000 0.000000 0.000000
      length 0.000000
      axis 0.0 0.0 -90.0 xyz
      dof rx ry rz
   end
   begin
      id 13
      name LeftHand_dum1
      direction 0.000000 0.000000 0.000000
      length 0.000000
      axis 0.0 0.0 -90.0 xyz
   end
   begin
      id 14
      name LeftHand_dum2
      direction 1.000000 0.000000 0.000000
      length 3.937000
      axis 0.0 0.0 -90.0 xyz
   end
   begin
      id 15
      name LeftHandThumb1
      direction 0.000000 0.000000 1.000000
      length 3.937000
      axis 0.0 0.0 -90.0 xyz
      dof rx rz ry
   end
   begin
      id 16
      name RightShoulder
      direction -1.000000 0.000000 0.000000
      length 6.635956
      axis 0.0 0.0 90.0 xyz
      dof rx ry rz
   end
   begin
      id 17
      name RightArm
      direction -1.000000 0.000000 0.000000
      length 10.274218
      axis 0.0 0.0 90.0 xyz
      dof rx ry rz
   end
   begin
      id 18
      name RightForeArm
      direction -1.000000 0.000000 0.000000
      length 8.522147
      axis 0.0 0.0 90.0 xyz
      dof ry rz rx
   end
   begin
      id 19
      name RightHand
      direction 0.000000 0.000000 0.000000
      length 0.000000
      axis 0.0 0.0 90.0 xyz
      dof rx ry rz
   end
   begin
      id 20
      name RightHand_dum1
      direction 0.000000 0.000000 0.000000
      length 0.000000
      axis 0.0 0.0 90.0 xyz
   end
   begin
      id 21
      name RightHand_dum2
      direction -1.000000 0.000000 0.000000
      length 3.937000
      axis 0.0 0.0 90.0 xyz
   end
   begin
      id 22
      name RightHandThumb1
      direction 0.000000 0.000000 1.000000
      length 3.937000
      axis 0.0 0.0 90.0 xyz
      dof rx rz ry
   end
   begin
      id 23
      name LeftUpLeg
      direction 0.000000 -1.000000 0.000000
      length 16.490845
      axis 0.0 0.0 0.0 xyz
      dof rx ry rz
   end
   begin
      id 24
      name LeftLeg
      direction 0.000000 -1.000000 0.000000
      length 14.556576
      axis 0.0 0.0 0.0 xyz
      dof rx ry rz
   end
   begin
      id 25
      name LeftFoot
      direction 0.000000 -0.258819 0.965926
      length 4.831116
      axis 15.0 0.0 0.0 xyz
      dof rx ry rz
   end
   begin
      id 26
      name LeftToeBase
      direction 0.000000 0.000000 1.000000
      length 2.952750
      axis 0.0 0.0 0.0 xyz
      dof rx ry rz
   end
   begin
      id 27
      name RightUpLeg
      direction 0.000000 -1.000000 0.000000
      length 16.490845
      axis 0.0 0.0 0.0 xyz
      dof rx ry rz
   end
   begin
      id 28
      name RightLeg
      direction 0.000000 -1.000000 0.000000
      length 14.556576
      axis 0.0 0.0 0.0 xyz
      dof rx ry rz
   end
   begin
      id 29
      name RightFoot
      direction 0.000000 -0.258819 0.965926
      length 4.831116
      axis 15.0 0.0 0.0 xyz
      dof rx ry rz
   end
   begin
      id 30
      name RightToeBase
      direction 0.000000 0.000000 1.000000
      length 2.952750
      axis 0.0 0.0 0.0 xyz
      dof rx ry rz
   end
:hierarchy
   begin
      root Spine_dum LeftUpLeg_dum RightUpLeg_dum
      Spine_dum Spine
      LeftUpLeg_dum LeftUpLeg
      RightUpLeg_dum RightUpLeg
      Spine Spine_dum1 Spine_dum2 Spine_dum3
      Spine_dum1 Head
      Spine_dum2 LeftShoulder
      Spine_dum3 RightShoulder
      LeftShoulder LeftArm
      LeftArm LeftForeArm
      LeftForeArm LeftHand
      LeftHand LeftHand_dum1 LeftHand_dum2
      LeftHand_dum1 LeftHandThumb1
      RightShoulder RightArm
      RightArm RightForeArm
      RightForeArm RightHand
      RightHand RightHand_dum1 RightHand_dum2
      RightHand_dum1 RightHandThumb1
      LeftUpLeg LeftLeg
      LeftLeg LeftFoot
      LeftFoot LeftToeBase
      RightUpLeg RightLeg
      RightLeg RightFoot
      RightFoot RightToeBase
   end

# File created by Blade
# Date/Time:  Thu Sep 25 19:04:16 2014
# Frame Rate: 120.000 fps
#------------------------------------------------------
:FULLY-SPECIFIED
:DEGREES
148
root -5.175061 32.902251 -2.360183 10.757591 -1.643332 -1.415757
Spine -10.654174 6.546855 7.730241
Head -8.656832 1.336534 1.792087
LeftShoulder -15.096518 18.785159 22.645941
LeftArm 20.735498 -24.453014 -34.917268
LeftForeArm 12.457797 -0.000000 14.797952
LeftHand -26.464467 -0.000000 -6.887724
LeftHandThumb1 -26.253704 0.000000 33.147579
RightShoulder -19.548854 13.840430 -40.884667
RightArm -6.868672 5.398859 29.783142
RightForeArm -26.866357 -0.000000 14.364972
RightHand -7.893408 -0.000000 9.900287
RightHandThumb1 -24.326973 -0.000000 -32.862282
LeftUpLeg -12.585148 12.025703 13.279414
LeftLeg 14.615812 -0.000000 -0.000000
LeftFoot -2.753438 -11.192695 -34.038454
LeftToeBase 3.466945 -0.000000 -0.000000
RightUpLeg -9.220943 -1.093804 1.614150
RightLeg 3.218898 -0.000000 -0.000000
RightFoot -8.394018 -6.749984 2.050801
RightToeBase -0.022291 -0.000000 0.000000
149
root -5.148420 32.903642 -2.367672 10.799296 -1.725730 -1.311311
Spine -10.679337 6.572141 7.813630
Head -8.649584 1.442802 1.599155
LeftShoulder -15.117372 18.825162 22.557407
LeftArm 20.688183 -24.454365 -34.937370
LeftForeArm 12.528768 -0.000000 14.777278
LeftHand -26.380872 -0.000000 -6.914224
LeftHandThumb1 -26.253704 0.000000 33.147579
RightShoulder -19.542179 14.031611 -40.984467
RightArm -6.894438 5.207478 29.749073
RightForeArm -26.842382 -0.000000 14.354330
RightHand -7.858351 -0.000000 10.058103
RightHandThumb1 -24.326973 -0.000000 -32.862282
LeftUpLeg -12.716896 11.884921 13.470890
LeftLeg 14.894537 -0.000000 -0.000000
LeftFoot -2.181907 -12.445190 -33.755983
LeftToeBase 3.947181 -0.000000 -0.000000
RightUpLeg -9.268205 -1.102637 1.456244
RightLeg 3.179160 -0.000000 -0.000000
RightFoot -8.385604 -6.673709 2.070183
RightToeBase -0.041381 -0.000000 0.000000
150
root -5.117627 32.903565 -2.372792 10.837361 -1.831396 -1.218740
Spine -10.710775 6.632255 7.914313
Head -8.625744 1.524884 1.373219
LeftShoulder -15.127253 18.860872 22.506862
LeftArm 20.627134 -24.489625 -35.030544
LeftForeArm 12.514186 -0.000000 14.862447
LeftHand -26.463937 -0.000000 -6.940359
LeftHandThumb1 -26.253704 0.000000 33.147579
RightShoulder -19.526643 14.107111 -41.078042
RightArm -6.880393 5.107766 29.745231
RightForeArm -26.866366 -0.000000 14.332440
RightHand -7.688274 -0.000000 10.024671
RightHandThumb1 -24.326973 -0.000000 -32.862282
LeftUpLeg -12.743595 11.632127 13.710098
LeftLeg 14.984693 -0.000000 -0.000000
LeftFoot -1.819283 -13.416737 -33.288998
LeftToeBase 4.061808 -0.000000 -0.000000
RightUpLeg -9.318061 -1.133061 1.305345
RightLeg 3.160151 -0.000000 -0.000000
RightFoot -8.398192 -6.554264 2.071977
RightToeBase -0.023681 -0.000000 0.000000
151
root -5.087151 32.903039 -2.378374 10.890538 -1.931876 -1.141701
Spine -10.762098 6.676288 8.003904
Head -8.607048 1.626773 1.234210
LeftShoulder -15.168120 18.940059 22.463518
LeftArm 20.637581 -24.499875 -35.111472
LeftForeArm 12.497242 -0.000000 14.844102
LeftHand -26.473711 -0.000000 -6.860957
LeftHandThumb1 -26.253704 0.000000 33.147579
RightShoulder -19.575291 14.222228 -41.129268
RightArm -6.764447 4.914065 29.735303
RightForeArm -26.780585 -0.000000 14.289737
RightHand -7.751926 0.000000 9.865294
RightHandThumb1 -24.326973 -0.000000 -32.862282
LeftUpLeg -12.816605 11.502323 13.940562
LeftLeg 15.124026 -0.000000 -0.000000
LeftFoot -1.883408 -13.945364 -32.675905
LeftToeBase 5.141583 -0.000000 -0.000000
RightUpLeg -9.378051 -1.140520 1.165863
RightLeg 3.130004 -0.000000 -0.000000
RightFoot -8.415544 -6.449329 2.136942
RightToeBase -0.060818 -0.000000 0.000000
152
root -5.053793 32.902957 -2.381511 10.935352 -2.037349 -1.059797
Spine -10.797146 6.707914 8.101854
Head -8.610678 1.760465 1.066531
LeftShoulder -15.234822 18.936115 22.370271
LeftArm 20.576719 -24.468234 -35.091303
LeftForeArm 12.579702 -0.000000 14.840653
LeftHand -26.463242 -0.000000 -7.090326
LeftHandThumb1 -26.253704 0.000000 33.147579
RightShoulder -19.561825 14.257702 -41.184881
RightArm -6.665997 4.869608 29.760789
RightForeArm -26.698645 0.000000 14.291615
RightHand -7.982769 -0.000000 9.943728
RightHandThumb1 -24.326973 -0.000000 -32.862282
LeftUpLeg -12.835448 11.326858 14.200672
LeftLeg 15.164646 -0.000000 -0.000000
LeftFoot -2.265762 -13.866468 -32.028122
LeftToeBase 5.260375 -0.000000 -0.000000
RightUpLeg -9.423657 -1.185930 1.027636
RightLeg 3.093877 -0.000000 -0.000000
RightFoot -8.420166 -6.337942 2.133927
RightToeBase -0.009027 -0.000000 0.000000
153
root -5.018307 32.902661 -2.383547 10.986335 -2.178054 -0.984441
Spine -10.847318 6.800033 8.195182
Head -8.582457 1.884492 0.877301
LeftShoulder -15.283576 18.995264 22.281067
LeftArm 20.595398 -24.412057 -35.101558
LeftForeArm 12.430125 0.000000 14.807157
LeftHand -26.569948 -0.000000 -6.899216
LeftHandThumb1 -26.253704 0.000000 33.147579
RightShoulder -19.542691 14.275203 -41.217890
RightArm -6.632384 4.802318 29.747400
RightForeArm -26.651551 -0.000000 14.301074
RightHand -7.828484 -0.000000 9.844235
RightHandThumb1 -24.326973 -0.000000 -32.862282
LeftUpLeg -12.809032 11.235719 14.461151
LeftLeg 15.110485 -0.000000 -0.000000
LeftFoot -2.964243 -13.060833 -31.431046
LeftToeBase 5.042994 -0.000000 -0.000000
RightUpLeg -9.453550 -1.186300 0.888364
RightLeg 3.004229 -0.000000 -0.000000
RightFoot -8.387072 -6.272854 2.072180
RightToeBase 0.030691 -0.000000 -0.000000
154
root -4.988332 32.901418 -2.385942 11.046286 -2.312565 -0.960512
Spine -10.908077 6.889820 8.322852
Head -8.539241 2.017326 0.700793
LeftShoulder -15.340686 19.064752 22.223955
LeftArm 20.599588 -24.396027 -35.146189
LeftForeArm 12.344264 -0.000000 14.826607
LeftHand -26.646242 0.000000 -6.803498
LeftHandThumb1 -26.253704 0.000000 33.147579
RightShoulder -19.547229 14.302491 -41.254587
RightArm -6.553512 4.759005 29.758214
RightForeArm -26.652841 -0.000000 14.290387
RightHand -7.808699 -0.000000 9.860322
RightHandThumb1 -24.326973 -0.000000 -32.862282
LeftUpLeg -12.773973 11.202762 14.811171
LeftLeg 15.021050 -0.000000 -0.000000
LeftFoot -3.820544 -11.674544 -30.461356
LeftToeBase 4.491229 -0.000000 -0.000000
RightUpLeg -9.504233 -1.172077 0.800253
RightLeg 2.946943 -0.000000 -0.000000
RightFoot -8.356501 -6.150008 2.091584
RightToeBase 0.000747 -0.000000 -0.000000
155
root -4.952692 32.899851 -2.385318 11.104292 -2.468442 -0.924314
Spine -10.981023 6.991493 8.429327
Head -8.474670 2.136811 0.554649
LeftShoulder -15.377189 19.088474 22.189679
LeftArm 20.546719 -24.332758 -35.163337
LeftForeArm 12.382445 -0.000000 14.837236
LeftHand -26.566035 -0.000000 -6.778351
LeftHandThumb1 -26.253704 0.000000 33.147579
RightShoulder -19.535545 14.304358 -41.255406
RightArm -6.460313 4.727550 29.750925
RightForeArm -26.642727 -0.000000 14.279448
RightHand -7.796230 0.000000 9.899596
RightHandThumb1 -24.326973 -0.000000 -32.862282
LeftUpLeg -12.695415 11.314978 15.127697
LeftLeg 14.851348 -0.000000 -0.000000
LeftFoot -4.775793 -9.817490 -29.433517
LeftToeBase 3.965483 -0.000000 -0.000000
RightUpLeg -9.551638 -1.134377 0.697666
RightLeg 2.889879 -0.000000 -0.000000
RightFoot -8.334406 -6.113446 2.036817
RightToeBase 0.011246 -0.000000 -0.000000
156
root -4.911715 32.898102 -2.383368 11.162576 -2.635320 -0.863606
Spine -11.059589 7.105083 8.498329
Head -8.420026 2.232011 0.427472
LeftShoulder -15.395462 19.101148 22.150631
LeftArm 20.507586 -24.394633 -35.207657
LeftForeArm 12.362395 -0.000000 14.861542
LeftHand -26.644090 -0.000000 -6.948525
LeftHandThumb1 -26.253704 0.000000 33.147579
RightShoulder -19.536086 14.344447 -41.271560
RightArm -6.412638 4.671292 29.754253
RightForeArm -26.616037 -0.000000 14.319936
RightHand -7.922988 -0.000000 9.850587
RightHandThumb1 -24.326973 -0.000000 -32.862282
LeftUpLeg -12.588462 11.556617 15.396732
LeftLeg 14.590468 -0.000000 -0.000000
LeftFoot -5.707307 -7.682671 -28.407957
LeftToeBase 4.151913 -0.000000 -0.000000
RightUpLeg -9.646470 -1.220181 0.583106
RightLeg 2.928509 -0.000000 -0.000000
RightFoot -8.361240 -5.969027 1.914484
RightToeBase 0.055901 -0.000000 -0.000000
157
root -4.871391 32.897972 -2.380063 11.228754 -2.803163 -0.817280
Spine -11.149890 7.215760 8.586945
Head -8.351493 2.336172 0.257595
LeftShoulder -15.446302 19.133614 22.063063
LeftArm 20.474068 -24.412836 -35.204611
LeftForeArm 12.415724 -0.000000 14.878669
LeftHand -26.661885 -0.000000 -6.596509
LeftHandThumb1 -26.253704 0.000000 33.147579
RightShoulder -19.465815 14.206171 -41.234674
RightArm -6.361835 4.877389 29.771051
RightForeArm -26.612527 -0.000000 14.410804
RightHand -7.976868 -0.000000 9.898577
RightHandThumb1 -24.326973 -0.000000 -32.862282
LeftUpLeg -12.452782 11.890129 15.692624
LeftLeg 14.227762 -0.000000 -0.000000
LeftFoot -6.550394 -5.271538 -26.959359
LeftToeBase 3.859428 -0.000000 -0.000000
RightUpLeg -9.710307 -1.209875 0.472278
RightLeg 2.890155 -0.000000 -0.000000
RightFoot -8.339220 -5.942128 1.793978
RightToeBase 0.068385 -0.000000 -0.000000
